<svg width="36" height="36" viewBox="0 0 36 36" fill="none" xmlns="http://www.w3.org/2000/svg">
<g clip-path="url(#clip0_314_5861)">
<rect x="12" y="6" width="19.5" height="30" fill="white"/>
<path d="M31.1487 0H4.85119C2.17207 0 0.00012207 2.17186 0.00012207 4.85107V31.1488C0.00012207 33.828 2.17199 35.9998 4.85119 35.9998H17.821L17.8431 23.1354H14.5009C14.0666 23.1354 13.7141 22.7842 13.7124 22.3499L13.6964 18.2032C13.6947 17.7665 14.0483 17.4115 14.485 17.4115H17.8211V13.4048C17.8211 8.75492 20.6609 6.22304 24.8089 6.22304H28.2126C28.6481 6.22304 29.0012 6.57609 29.0012 7.01166V10.5082C29.0012 10.9436 28.6483 11.2966 28.213 11.2968L26.1242 11.2978C23.8684 11.2978 23.4316 12.3697 23.4316 13.9428V17.4116H28.3884C28.8607 17.4116 29.2271 17.824 29.1715 18.2931L28.68 22.4398C28.6329 22.8366 28.2964 23.1356 27.8969 23.1356H23.4537L23.4316 36H31.1489C33.828 36 35.9999 33.8281 35.9999 31.149V4.85107C35.9998 2.17186 33.8279 0 31.1487 0Z" fill="#397DF6"/>
</g>
<defs>
<clipPath id="clip0_314_5861">
<rect width="36" height="36" fill="white"/>
</clipPath>
</defs>
</svg>
